<?xml version="1.0" standalone="no"?>
<!DOCTYPE svg PUBLIC "-//W3C//DTD SVG 20010904//EN"
 "http://www.w3.org/TR/2001/REC-SVG-20010904/DTD/svg10.dtd">
<svg version="1.0" xmlns="http://www.w3.org/2000/svg"
 width="1500.000000pt" height="1500.000000pt" viewBox="0 0 1500.000000 1500.000000"
 preserveAspectRatio="xMidYMid meet">
<metadata>
Created by potrace 1.14, written by Peter Selinger 2001-2017
</metadata>
<g transform="translate(0.000000,1500.000000) scale(0.100000,-0.100000)"
fill="#000000" stroke="none">
<path d="M0 7500 l0 -7500 7500 0 7500 0 0 7500 0 7500 -7500 0 -7500 0 0
-7500z m9590 6375 l0 -74 -32 -6 c-54 -8 -271 -35 -290 -35 -15 0 -18 9 -18
60 0 54 2 60 23 65 70 17 285 63 300 64 15 1 17 -9 17 -74z m-6622 -91 c42 -8
119 -35 171 -60 217 -102 349 -315 381 -614 13 -129 13 -1588 0 -1719 -22
-211 -88 -367 -208 -493 -124 -130 -279 -194 -497 -205 -372 -19 -643 150
-750 469 -53 159 -55 204 -55 1078 0 967 2 993 96 1188 90 187 249 311 458
357 87 19 309 19 404 -1z m-1308 -1534 l0 -1520 -255 0 -255 0 0 1163 -1 1162
-184 -190 -184 -190 -1 271 0 270 236 277 236 277 204 0 204 0 0 -1520z m6085
1456 c54 -23 103 -71 128 -126 17 -37 22 -70 25 -188 l4 -143 -98 3 -99 3 -5
115 c-3 65 -10 125 -18 137 -28 50 -133 47 -168 -5 -18 -25 -19 -56 -22 -404
-3 -419 -1 -447 51 -479 40 -25 100 -20 131 10 19 20 21 35 24 176 l3 155 101
0 100 0 -4 -167 c-3 -151 -6 -173 -27 -221 -49 -108 -147 -158 -297 -150 -147
8 -241 77 -281 206 -16 50 -18 103 -18 447 0 340 2 397 17 445 32 102 99 169
198 197 59 17 203 11 255 -11z m718 4 c52 -16 73 -29 104 -64 54 -61 65 -100
70 -259 l5 -138 -98 3 -99 3 -5 115 c-3 65 -10 125 -18 137 -28 50 -136 47
-170 -5 -15 -24 -17 -63 -17 -428 0 -393 0 -403 21 -431 27 -36 81 -51 124
-33 51 21 60 52 60 210 l0 140 101 0 101 0 -4 -167 c-3 -150 -6 -174 -27 -221
-48 -107 -148 -158 -294 -150 -146 8 -230 64 -279 187 -23 55 -23 64 -23 461
0 446 2 461 65 548 72 100 232 138 383 92z m1103 -9 c64 -29 117 -81 146 -145
23 -50 23 -57 26 -467 3 -406 2 -417 -19 -474 -26 -71 -83 -135 -147 -166 -40
-20 -63 -23 -152 -24 -89 0 -113 4 -155 23 -68 31 -108 72 -142 146 l-28 61
-3 375 c-3 256 0 396 8 442 22 123 98 214 207 244 69 20 197 12 259 -15z
m4850 4 c57 -24 111 -81 130 -138 10 -29 17 -86 18 -141 l1 -91 -97 -3 -98 -3
0 58 c0 76 -15 129 -43 148 -40 28 -114 16 -144 -24 -18 -24 -16 -126 3 -164
9 -18 88 -105 176 -194 202 -206 213 -226 213 -398 0 -141 -11 -180 -69 -243
-56 -61 -110 -84 -216 -90 -120 -7 -189 14 -251 76 -62 63 -79 119 -79 269 l0
113 99 0 99 0 4 -116 c3 -112 4 -117 31 -140 28 -24 84 -32 122 -18 43 17 61
155 30 230 -8 19 -84 106 -170 194 -198 203 -210 225 -210 390 0 109 2 118 30
170 34 62 90 106 162 126 61 18 206 11 259 -11z m-9520 -22 c51 -27 98 -80
115 -130 10 -26 14 -91 14 -213 0 -161 -2 -178 -22 -216 -27 -50 -72 -90 -113
-99 -16 -4 -30 -9 -30 -12 0 -2 45 -132 100 -288 55 -156 100 -286 100 -289 0
-3 -50 -6 -110 -6 l-110 0 -15 33 c-8 17 -53 142 -99 277 l-85 245 -3 -275 -3
-275 -107 -3 -108 -3 0 641 0 641 218 -3 c201 -3 220 -5 258 -25z m762 -60
l-3 -88 -147 -3 -148 -3 0 -179 0 -180 105 0 105 0 0 -85 0 -85 -105 0 -105 0
0 -195 0 -195 150 0 151 0 -3 -87 -3 -88 -257 -3 -258 -2 0 640 0 640 260 0
261 0 -3 -87z m597 60 c54 -29 99 -78 127 -138 23 -49 23 -57 26 -445 4 -443
0 -475 -63 -561 -63 -87 -143 -109 -401 -109 l-174 0 0 641 0 640 223 -3 c205
-3 225 -5 262 -25z m495 -488 c0 -566 -1 -560 59 -585 42 -17 95 -5 121 27 20
25 20 37 20 549 l0 524 106 0 105 0 -3 -532 c-3 -528 -3 -534 -26 -590 -48
-118 -151 -174 -306 -166 -137 8 -220 58 -268 163 -23 50 -23 51 -26 588 l-3
537 111 0 110 0 0 -515z m2220 -125 l0 -641 -107 3 -108 3 -3 638 -2 637 110
0 110 0 0 -640z m1148 513 c22 -71 71 -225 109 -345 l68 -216 3 344 2 344 95
0 95 0 -2 -637 -3 -638 -95 0 -95 0 -122 385 -122 385 -3 -385 -3 -385 -90 0
-90 0 -3 638 -2 637 109 0 109 0 40 -127z m1310 92 c63 -34 103 -87 126 -165
13 -45 16 -114 16 -436 0 -358 -1 -386 -21 -449 -15 -50 -31 -78 -63 -109 -68
-69 -108 -78 -348 -84 l-208 -4 0 642 0 641 223 -3 222 -3 53 -30z m780 -52
l-3 -88 -147 -3 -148 -3 0 -179 0 -180 105 0 105 0 0 -85 0 -85 -105 0 -105 0
0 -195 0 -195 150 0 151 0 -3 -87 -3 -88 -255 0 -255 0 -3 638 -2 637 260 0
261 0 -3 -87z m652 -463 l0 -550 125 0 125 0 0 -90 0 -90 -235 0 -235 0 0 640
0 640 110 0 110 0 0 -550z m922 -70 c64 -338 117 -625 118 -637 0 -22 -3 -23
-104 -23 -58 0 -108 4 -111 10 -3 5 -13 49 -21 97 -25 149 -8 133 -134 133
-125 0 -110 13 -130 -115 -6 -38 -13 -82 -16 -97 l-6 -28 -98 0 c-54 0 -101 3
-103 8 -2 4 40 237 93 517 54 281 107 565 120 633 l23 123 126 -3 126 -3 117
-615z m-7561 -1166 c115 -34 169 -128 169 -296 l0 -89 -97 3 -98 3 -5 88 c-6
107 -22 127 -99 127 -58 0 -90 -29 -98 -87 -11 -85 6 -112 186 -296 208 -214
214 -226 219 -394 4 -151 -10 -206 -73 -268 -55 -55 -125 -79 -230 -80 -108 0
-165 18 -225 72 -67 60 -82 110 -84 267 l-1 121 103 3 102 3 0 -116 c0 -115 0
-117 29 -146 34 -33 91 -40 128 -14 47 33 56 161 18 236 -10 19 -84 101 -165
184 -186 190 -202 218 -208 367 -5 130 11 188 68 246 53 55 124 81 226 81 46
1 103 -6 135 -15z m1124 -16 c58 -30 74 -46 106 -108 20 -38 24 -64 27 -167
l4 -123 -101 0 -101 0 0 96 c0 92 -1 97 -29 125 -41 41 -98 41 -143 0 l-33
-29 -3 -384 c-2 -211 0 -398 3 -417 10 -51 45 -81 97 -81 88 0 108 40 108 223
l0 117 -55 0 -55 0 0 85 0 85 155 0 155 0 0 -340 0 -340 -80 0 -80 0 0 51 0
52 -23 -34 c-45 -67 -128 -99 -220 -84 -117 20 -193 105 -217 246 -7 42 -10
195 -8 444 4 440 5 443 93 532 69 68 117 84 250 80 85 -3 108 -7 150 -29z
m5646 16 c115 -34 169 -128 169 -296 l0 -89 -97 3 -98 3 -5 89 c-7 106 -22
126 -99 126 -60 0 -91 -29 -98 -93 -10 -82 8 -109 184 -289 215 -219 226 -241
221 -425 -3 -145 -15 -181 -81 -244 -53 -52 -121 -74 -232 -73 -110 1 -164 19
-222 76 -60 59 -76 114 -77 263 l-1 120 103 3 102 3 0 -116 c0 -115 0 -117 29
-146 34 -33 91 -40 128 -14 46 33 56 161 18 235 -10 19 -86 104 -169 190 -186
190 -198 211 -204 362 -7 173 38 260 159 306 68 26 192 29 270 6z m-8089 -27
c73 -36 113 -85 139 -168 19 -62 20 -89 17 -465 -3 -395 -3 -400 -27 -451 -13
-29 -43 -70 -66 -92 -67 -61 -114 -71 -347 -71 l-198 0 0 641 0 641 213 -4
c209 -3 213 -3 269 -31z m796 -59 l3 -88 -151 0 -150 0 0 -180 0 -180 105 0
105 0 0 -90 0 -90 -105 0 -105 0 0 -190 0 -189 148 -3 147 -3 3 -87 3 -88
-261 0 -260 0 0 640 0 640 258 -2 257 -3 3 -87z m1032 -548 l0 -640 -110 0
-110 0 0 640 0 640 110 0 110 0 0 -640z m1092 109 l3 -531 28 -24 c20 -17 40
-24 70 -24 54 0 83 21 97 68 6 23 10 225 10 540 l0 502 100 0 100 0 0 -510 c0
-523 -3 -577 -41 -651 -25 -51 -91 -104 -147 -120 -26 -8 -86 -14 -135 -13
-79 1 -94 4 -155 35 -56 29 -72 43 -99 88 -17 29 -37 75 -42 103 -7 31 -11
237 -11 558 l0 510 110 0 109 0 3 -531z m1073 -109 l121 -635 -110 -3 c-60 -1
-110 -1 -112 1 -2 1 -11 52 -21 112 l-19 110 -111 3 c-128 3 -115 15 -134
-120 -6 -48 -15 -92 -19 -98 -4 -7 -42 -10 -106 -8 l-99 3 117 625 c65 344
120 631 123 638 3 9 35 12 127 10 l123 -3 120 -635z m425 90 l0 -549 128 -3
127 -3 3 -87 3 -88 -241 0 -240 0 0 640 0 640 110 0 110 0 0 -550z m825 522
c65 -30 108 -73 137 -136 23 -50 23 -57 26 -451 4 -468 1 -491 -75 -575 -72
-80 -111 -90 -358 -90 l-205 0 0 641 0 641 213 -4 c195 -3 216 -5 262 -26z
m719 1 c13 -62 236 -1243 236 -1248 0 -3 -51 -4 -112 -3 l-112 3 -7 40 c-4 22
-12 73 -19 113 l-12 72 -112 0 -112 0 -18 -115 -18 -115 -105 0 -105 0 6 28
c3 15 53 279 111 587 58 308 110 584 116 613 l10 52 124 0 123 0 6 -27z m808
-6 c68 -33 111 -82 135 -152 16 -45 18 -95 18 -465 0 -415 0 -415 -24 -467
-13 -29 -43 -70 -66 -92 -67 -61 -114 -71 -347 -71 l-198 0 0 641 0 641 213
-4 c209 -3 213 -3 269 -31z m796 -59 l3 -88 -151 0 -150 0 0 -180 0 -180 105
0 105 0 0 -90 0 -90 -105 0 -105 0 0 -190 0 -189 148 -3 147 -3 3 -87 3 -88
-261 0 -260 0 0 640 0 640 258 -2 257 -3 3 -87z m-4265 -2996 c507 -507 666
-672 661 -685 -6 -16 -97 -17 -1350 -17 -1224 0 -1345 1 -1351 16 -8 22 1322
1354 1352 1354 13 0 247 -226 688 -668z m-3245 -3255 c2 -1229 1 -1348 -14
-1354 -12 -4 -199 177 -690 668 -371 371 -674 678 -674 684 0 18 1345 1355
1360 1353 13 -3 15 -162 18 -1351z m5814 686 c368 -368 668 -675 668 -683 0
-8 -303 -318 -674 -689 -585 -585 -677 -673 -690 -662 -14 12 -16 148 -16
1341 0 731 3 1335 6 1344 3 9 14 16 23 16 9 0 316 -300 683 -667z m-1848 631
c3 -9 6 -206 6 -438 0 -315 -3 -425 -12 -434 -17 -17 -2799 -17 -2816 0 -9 9
-12 119 -12 434 0 232 3 429 6 438 6 15 139 16 1414 16 1275 0 1408 -1 1414
-16z m0 -1770 c8 -20 8 -848 0 -868 -6 -15 -139 -16 -1408 -16 -1077 0 -1405
3 -1414 12 -17 17 -17 859 0 876 9 9 337 12 1414 12 1269 0 1402 -1 1408 -16z
m-61 -2117 c6 -17 -1331 -1357 -1353 -1357 -21 0 -1350 1331 -1350 1352 0 17
70 18 1349 18 1120 0 1350 -2 1354 -13z"/>
<path d="M2665 13356 c-42 -19 -84 -63 -109 -116 -21 -45 -21 -50 -21 -990 l0
-945 26 -56 c31 -66 75 -103 142 -120 103 -26 215 14 261 94 46 79 47 106 44
1062 l-3 900 -23 50 c-29 63 -57 93 -107 116 -48 22 -165 25 -210 5z"/>
<path d="M9372 13535 c-60 -26 -62 -40 -62 -468 0 -382 0 -384 23 -417 28 -43
67 -56 118 -41 72 22 74 29 77 421 2 190 1 369 -3 398 -11 92 -79 139 -153
107z"/>
<path d="M4640 13335 l0 -195 45 0 c60 0 100 22 114 61 14 41 14 237 0 278
-14 41 -35 51 -103 51 l-56 0 0 -195z"/>
<path d="M5990 13070 l0 -460 50 0 c62 0 113 20 135 53 14 22 15 70 13 422
l-3 397 -28 24 c-24 20 -39 24 -98 24 l-69 0 0 -460z"/>
<path d="M11150 13069 l0 -462 72 5 c65 5 75 9 100 37 l28 31 0 396 0 396 -29
29 c-27 27 -35 29 -100 29 l-71 0 0 -461z"/>
<path d="M13487 13083 c-20 -126 -37 -231 -37 -235 0 -5 36 -8 80 -8 44 0 80
3 80 8 1 23 -75 462 -80 462 -3 0 -22 -102 -43 -227z"/>
<path d="M4640 11291 l0 -461 68 0 c71 0 99 13 121 57 7 15 11 143 11 407 l0
386 -29 32 c-26 30 -35 33 -100 36 l-71 4 0 -461z"/>
<path d="M8637 11520 c-5 -13 -77 -438 -77 -454 0 -3 36 -6 80 -6 70 0 80 2
79 18 -1 48 -77 455 -82 442z"/>
<path d="M9890 11290 l0 -460 71 0 c65 0 73 2 100 29 l29 29 0 391 c0 270 -3
398 -11 415 -16 35 -67 56 -133 56 l-56 0 0 -460z"/>
<path d="M10684 11305 l-40 -245 83 0 c81 0 83 1 78 23 -3 12 -21 119 -40 237
-20 118 -37 219 -38 223 -1 4 -21 -102 -43 -238z"/>
<path d="M11400 11291 l0 -461 65 0 c35 0 76 5 90 12 54 24 55 34 55 452 l0
386 -29 32 c-27 30 -34 33 -105 36 l-76 4 0 -461z"/>
</g>
</svg>
